<?xml version="1.0" encoding="UTF-8" standalone="no"?>
<svg
   width="132.93886"
   height="214.84059"
   viewBox="0 0 1107.8238 1790.3383"
   version="1.1"
   id="svg23"
   sodipodi:docname="yoyo_logo.svg"
   inkscape:version="1.2.2 (b0a8486541, 2022-12-01)"
   xmlns:inkscape="http://www.inkscape.org/namespaces/inkscape"
   xmlns:sodipodi="http://sodipodi.sourceforge.net/DTD/sodipodi-0.dtd"
   xmlns="http://www.w3.org/2000/svg"
   xmlns:svg="http://www.w3.org/2000/svg">
  <defs
     id="defs27" />
  <sodipodi:namedview
     id="namedview25"
     pagecolor="#ffffff"
     bordercolor="#666666"
     borderopacity="1.0"
     inkscape:showpageshadow="2"
     inkscape:pageopacity="0.0"
     inkscape:pagecheckerboard="0"
     inkscape:deskcolor="#d1d1d1"
     showgrid="false"
     inkscape:zoom="1.7199074"
     inkscape:cx="97.388964"
     inkscape:cy="158.72948"
     inkscape:window-width="2560"
     inkscape:window-height="1375"
     inkscape:window-x="0"
     inkscape:window-y="0"
     inkscape:window-maximized="1"
     inkscape:current-layer="svg23" />
  <g
     stroke-linecap="round"
     id="Layer_4"
     transform="translate(-986.81618,-474.15877)">
    <path
       d="m 1616.22,899.67 c 1.42,0.13 5.24,0.49 7.64,0.72 0.99,0.1 22.89,2.79 31.23,4 8.08,1.36 23.34,4.45 30.9,6.08 13.91,3.46 41.67,11.4 55.4,15.87 12.6,4.41 37.61,14.78 53.74,22.39 13.15,6.56 39.16,20.76 50.93,28.19 15.14,10.04 38.62,27.43 47.52,34.55 16.47,13.76 32.07,28.59 44.74,41.68 9.78,10.79 28.83,33.35 37.68,45.05 7.95,10.91 22.25,33.67 30.93,48.87 6.85,12.7 19.61,39.07 24.78,52.08 6.34,17.21 15.44,46.19 17.72,55.07 3.52,14.36 8.04,39.11 10.32,56.73 1.54,14.3 3.12,42.29 2.97,58.07 -0.36,14.07 -3.03,43.64 -4.91,57.96 -2.22,14.76 -8.6,43.19 -12.3,56.1 -5.33,17.23 -15.42,45.09 -19.81,55.54 -4.61,10.17 -17.88,35.86 -26.89,51.49 -3.75,6.23 -11.72,18.59 -15.8,24.78 -8.09,11.64 -26.73,34.78 -36.32,45.8 -10.22,11.34 -32.15,32.99 -42.47,42.01 -11.18,9.45 -35.19,27.7 -47.3,36.28 -6.59,4.38 -19.62,12.58 -26.38,16.59 -12.8,7.12 -36.55,19.36 -53.11,27 -12.5,5.43 -37.99,14.82 -55.04,20.2 -14.19,4.14 -43.31,11.49 -57.27,14.12 -18.27,3.02 -43.95,5.99 -58.47,7.24 -17.81,1.08 -40.76,1.38 -59.24,0.74 -11.47,-0.65 -41.09,-3.46 -59.15,-5.96 -13.75,-2.22 -42.87,-8.89 -57.12,-12.73 -17.33,-5.07 -44.21,-14.16 -56.68,-19.23 -10.09,-4.32 -39.44,-18.5 -52.37,-25.31 -17.08,-9.68 -36.78,-22.29 -51.26,-32.62 -9.07,-6.77 -35.14,-27.79 -46.27,-37.95 -7.89,-7.49 -28.68,-29.43 -40.21,-42.83 -9.13,-11.18 -26.58,-34.6 -34.2,-46.46 -9.71,-15.88 -24.34,-42.62 -28.36,-51.05 -6.24,-13.47 -15.81,-37.78 -21.63,-55.06 -4.38,-14 -11.37,-41.19 -14.18,-56.5 -1.91,-11.34 -5.59,-44.15 -6.55,-58.87 -0.33,-7.37 -0.57,-19.93 -0.37,-29.11 0.65,-15.41 4.02,-49.12 5.41,-58.25 1.17,-7.14 3.82,-21.35 5.32,-28.36 2.62,-10.85 10.81,-38.72 16.71,-55.75 4.65,-12.56 16.32,-39.02 23.21,-52.23 6.84,-12.59 21.75,-37.64 29.7,-49.25 9.16,-12.94 29.08,-37.5 36.55,-45.96 12.14,-13.2 28.3,-29.12 41.59,-40.97 8.38,-7.12 31,-24.78 46.45,-35.76 11.98,-8.11 37.73,-23.07 50.58,-29.87 13.03,-6.52 42.84,-19.99 53.44,-24.04 15.2,-5.49 43.77,-14.06 57.98,-17.89 17.35,-4.18 39.78,-8.38 58.44,-10.94 14.79,-1.64 40.67,-3.69 59.93,-4.33 14.69,-0.16 44.59,1.48 59.27,2.8 17.88,2 48.35,6.98 59.37,9.37 11.43,2.69 46.44,12.57 57.79,16.43 22.02,8.09 27.64,10.37 31.4,12"
       fill="none"
       stroke="#499be4"
       stroke-width="60"
       stroke-opacity="1"
       stroke-linejoin="round"
       id="path2" />
    <path
       d="m 1044.51,1102.56 c -13.02,-11.45 -14.63,-13.2 -14.44,-13.1 1.03,0.62 72.75,54.91 104.54,79.21 12.84,10.37 42.95,35.37 47.18,40.03 3.72,4.11 9.71,12.29 11.48,15.67 0.22,0.41 2.74,5.69 3.31,6.55 0.78,1.12 2.63,2.32 3.61,2.35 0.98,-0.04 3.11,-1.23 4.21,-2.38 2.12,-2.3 4.86,-8.42 5.38,-9.59 3.53,-8.2 15.24,-39.18 21.4,-56.75 12.45,-37.35 30.87,-92.64 36.84,-110.57 -7.02,20.17 -24.66,70.84 -35.27,101.33 -12.45,35.49 -36.98,104.72 -49.04,138.46 -13.26,36.24 -39.47,106.95 -52.42,141.43 -10.26,26.99 -25.14,66.13 -29.76,78.28"
       fill="none"
       stroke="#27284d"
       stroke-width="86.48"
       stroke-opacity="1"
       stroke-linejoin="round"
       id="path4" />
    <path
       d="m 1350.44,1168.5 c -0.01,1.39 -0.01,2.3 0,2.73 0.15,12.04 -0.23,18.41 -1.38,28.87 -0.85,7.96 -1.14,20.56 -0.8,31.05 0.86,18.9 3.37,35.72 4.61,38.9 1.27,3.18 4.07,6.55 5.85,7.96 3.02,2.32 6.67,3.97 10.34,4.6 5.86,0.96 15.04,0.38 26.62,-0.8 8.82,-1.05 25.34,-3.88 33.66,-5.53 10.08,-2.1 15.64,-4.13 18.4,-6.04 1.67,-1.22 3.18,-2.88 4.08,-4.55 2.12,-4.14 2.43,-14.03 2.45,-26.69 -0.05,-9.14 -0.3,-30.6 -0.62,-35.34 -0.7,-5.97 -1.77,-16.64 -3.37,-24.86 -1.26,-6.04 -2.54,-10.17 -4.17,-11.8 -3.07,-2.94 -6.93,-5.41 -10.26,-6.41 -4.88,-1.39 -18.45,-1.29 -26.58,-0.42 -5.62,0.6 -22.36,3.64 -28.33,5.01 -8.62,2 -16.62,3.19 -27,3.32 -4.22,0 -9.85,0 -11.25,0 -0.66,0 -1.32,0 -1.98,0"
       fill="none"
       stroke="#27284d"
       stroke-width="86.48"
       stroke-opacity="1"
       stroke-linejoin="round"
       id="path6" />
    <path
       d="m 1664.46,849.37 c 8.59,-21.24 29.96,-74.11 42.73,-105.74 7.72,-18.84 23.09,-55.45 30.65,-72.3 7.45,-15.92 22.07,-44.99 29.24,-58.13 3.53,-6.11 13.19,-22.34 17.68,-29.06 7.08,-10.54 20.81,-27.73 27.48,-34.37 6.66,-6.59 18.53,-15.13 25.81,-18.65 6.94,-3.29 17.73,-7.66 23.08,-9.35 5.35,-1.67 16.05,-3.9 19.7,-4.1 4.97,-0.23 13.28,0.76 17.07,2.01 3.77,1.29 10.16,5.25 13.19,8.18 5.22,5.12 15.74,18.96 17.9,23.52 2.35,5.07 6.52,21.71 7.3,29.21 0.73,7.32 0.79,25.08 0.11,32.44 -0.7,7.37 -6.39,37.16 -10.66,55.18 -4.35,16.54 -13.48,47.42 -17.51,60.29 -9.17,27.41 -29.88,87.63 -41.41,120.43 -10.36,28.54 -31.14,85.36 -41.56,113.65 -11.35,30.63 -34.54,93.3 -46.38,125.34 -12.27,33.25 -37.3,101.19 -50.06,135.87 -12.04,32.85 -32.5,88.64 -40.91,111.57 -7.32,19.97 -24.8,67.64 -34.97,95.36 -9.64,26.15 -28.06,75.94 -36.83,99.57 -10.21,27.11 -34.08,90.48 -47.75,126.72 -11.6,30.6 -35.49,92.87 -43.8,113.19 -12.79,30.77 -34.37,82.61 -43.44,102.07 -14.16,30.3 -44.23,93.34 -60.14,126.07 -15.41,30.18 -44.83,86.6 -58.84,112.86 -2.97,5.34 -11.54,20.37 -17.13,30.04 -8.85,14.61 -26.54,39.76 -31.81,45.86 -5.38,6.21 -18.53,17.73 -19.81,18.67 -1.15,0.84 -9.6,6.28 -12.48,7.62 -4.71,2.16 -25.67,6.6 -29.91,7.02 -4.32,0.43 -12.8,0.73 -15.34,0.55 -3.8,-0.28 -24.26,-5.87 -26.89,-6.98 -6.27,-2.63 -22.37,-9.54 -27,-12.48 -3.51,-2.25 -10.68,-8.1 -13.36,-10.88 -2.94,-3.11 -10.63,-14.55 -13.78,-20.52 -1.52,-2.91 -4.78,-9.91 -5.82,-12.95 -1.19,-3.57 -2.88,-11.63 -3.37,-16.07 -0.97,-9.11 -0.24,-24.86 0.73,-33.75 1.65,-12.25 7.58,-39.96 11.86,-55.41 4.76,-16.02 15.59,-49.15 21.28,-65.94 6.22,-17.21 19.05,-50.17 25.55,-66.44 7.07,-16.77 21.57,-50.39 29.01,-67.26 6.17,-13.91 16.92,-38.15 21.49,-48.48 0.89,-2.01 2.19,-4.96 2.6,-5.88"
       fill="none"
       stroke="#27284d"
       stroke-width="86.48"
       stroke-opacity="1"
       stroke-linejoin="round"
       id="path8" />
    <path
       d="m 1558.49,1078.31 c 17.85,19.49 62.42,68.18 89.13,97.38 11.23,12.31 31.39,34.49 40.33,44.35 8.4,9.47 21.13,24.11 25.47,29.27 1.41,1.71 3.83,4.64 4.85,5.87"
       fill="none"
       stroke="#27284d"
       stroke-width="86.48"
       stroke-opacity="1"
       stroke-linejoin="round"
       id="path10" />
    <path
       d="m 1866.08,1174.99 c 0,1.39 0,2.3 0,2.73 0.16,12.04 -0.23,18.4 -1.37,28.87 -0.85,7.96 -1.15,20.55 -0.81,31.05 0.87,18.89 3.38,35.72 4.62,38.9 1.27,3.18 4.07,6.55 5.85,7.96 3.02,2.32 6.66,3.96 10.34,4.6 5.86,0.95 15.04,0.38 26.61,-0.8 8.83,-1.06 25.35,-3.89 33.66,-5.53 10.09,-2.1 15.65,-4.13 18.4,-6.04 1.68,-1.22 3.19,-2.88 4.08,-4.55 2.12,-4.14 2.44,-14.04 2.45,-26.69 -0.04,-9.14 -0.29,-30.6 -0.61,-35.34 -0.7,-5.98 -1.78,-16.64 -3.37,-24.87 -1.27,-6.04 -2.54,-10.16 -4.18,-11.79 -3.06,-2.94 -6.92,-5.41 -10.25,-6.41 -4.88,-1.4 -18.45,-1.29 -26.58,-0.43 -5.62,0.61 -21.13,3.36 -28.25,5.04 -7.55,1.8 -17.58,3.09 -26.99,3.63 -1.5,0.11 -5.62,0.61 -6.01,1 -0.62,0.67 -0.13,2.6 0.69,4"
       fill="none"
       stroke="#27284d"
       stroke-width="86.48"
       stroke-opacity="1"
       stroke-linejoin="round"
       id="path12" />
    <path
       d="m 1288.82,1395.54 c -0.54,8.48 -1.89,31.12 -2.68,52.74 -0.5,35.2 -1.17,123.49 -0.76,146.31 0.8,19.98 2.7,41.92 4.74,54.84 0.48,3 4.3,10.33 6.95,12.65 1.31,1.09 4.23,2.52 5.81,2.84 0.74,0.14 39.91,-2.41 46.91,-2.87 7.51,-0.22 26.98,-0.2 31.6,-0.86 3.95,-0.59 11.56,-2.76 15.22,-4.35 3.64,-1.6 10.49,-5.73 13,-7.86 5.01,-4.3 13.38,-13.96 17.35,-20 3.96,-6.09 11.1,-20.3 14.04,-28.05 2.92,-7.79 7.51,-24.75 9.15,-33.81 0.96,-5.34 3.04,-23.59 3.61,-31.54 0.38,-8.17 0.57,-25.11 0.38,-33.89 -0.43,-11.56 -2.51,-26.02 -4.93,-33.42 -1.23,-3.68 -4.29,-10.56 -6.13,-13.74 -1.85,-3.18 -6.15,-9.03 -8.6,-11.71 -2.61,-2.81 -7.9,-7.36 -11.2,-9.64 -6.28,-4.29 -21.27,-10.85 -29.97,-13.13 -8.73,-2.26 -24.63,-4.26 -39.35,-5.12 -16.54,-1 -38.69,-2.36 -44.3,-2.73 -4.12,-0.29 -6.98,-0.2 -6.03,0.18 1.09,0.38 16.35,-0.14 19.46,-0.19 1.62,-0.02 2.4,0.25 1.76,0.56 -1.24,0.52 -18.29,2.11 -19.82,2.25"
       fill="none"
       stroke="#27284d"
       stroke-width="86.48"
       stroke-opacity="1"
       stroke-linejoin="round"
       id="path14" />
    <path
       d="m 1499.83,1348.89 c 19.63,21.79 64.71,71.55 90.17,99.53 4.4,4.68 12.32,13 12.56,13.27 1.35,1.52 3.71,3.14 5.01,3.14 0.77,0.01 1.4,-0.88 2.16,-0.78 0.98,0.16 2.86,2.43 3.82,4.31 3.02,5.93 9.99,22.62 12.79,29.36"
       fill="none"
       stroke="#27284d"
       stroke-width="54.05"
       stroke-opacity="1"
       stroke-linejoin="round"
       id="path16" />
    <path
       d="m 1740.58,1447.97 c 1.02,31.31 4.27,127.37 4.37,127.18 0.2,-0.69 -1.03,-57.09 -1.53,-56.82 -0.75,0.6 -3.06,38.54 -4.07,58.83 -0.84,18.55 -1.96,43.22 -2.23,49.33 1.61,-12.04 7.05,-52.88 8.56,-60.88 1.72,-9.01 5.91,-24.45 8.6,-31.67 1.51,-3.99 5.72,-12.75 8.32,-16.89 2.55,-3.98 8.22,-10.64 11.25,-13.21 5.08,-4.25 18.34,-11.37 24.34,-13.17 3.21,-0.93 10.64,-1.47 14.41,-0.82 3.72,0.69 10.1,3.61 13.82,6.01 3.18,2.09 9.15,7.1 11.39,9.54 3.81,4.22 11.25,16.72 13.37,22.73 2.48,7.12 5.09,22.8 5.9,32.92 0.76,13 0.9,49.06 0.9,62.1"
       fill="none"
       stroke="#27284d"
       stroke-width="75.67"
       stroke-opacity="1"
       stroke-linejoin="round"
       id="path18" />
    <path
       d="m 1966.36,1553.57 c 5.26,0.59 16.46,1.86 22.4,2.55 4.92,0.51 13.26,0.44 17.4,-0.13 4.18,-0.6 13.88,-3.4 19.02,-6.11 6.06,-3.23 14.64,-10.64 17.24,-13.43 1.23,-1.33 4.35,-5.31 5.86,-8.02 1.73,-3.17 3.63,-10.36 3.69,-13.97 0.02,-3.47 -1.36,-10.06 -2.56,-13.2 -2.29,-5.83 -8.93,-15.53 -11.53,-18.67 -2.91,-3.51 -8.88,-9.71 -12.33,-12.81 -5.29,-4.69 -15.99,-11.22 -21.22,-13.03 -4.04,-1.37 -12.22,-2.53 -16.35,-2.32 -2.24,0.12 -7.72,1.17 -8.15,1.25 -5.46,1.07 -9.25,2.58 -13.42,5.04 -4.68,2.81 -14.72,12.15 -18.03,16.03 -1.86,2.2 -7.09,10.87 -7.65,11.8 -0.67,1.12 -7.11,15.93 -8.33,18.66 -0.38,1.68 -1.89,5.51 -2.21,6.68 -0.23,0.84 -0.16,4.98 -0.31,5.65 -0.21,0.94 -1.56,4.33 -1.79,5.57 -0.09,0.46 -0.09,33.39 -0.2,35.46 -0.05,1.96 1.59,6.55 1.82,8.48 0.31,2.69 1.09,6.03 1.33,7.06 2.09,3.84 4.43,7.99 4.74,8.88 0.32,0.9 3.76,14.86 5.52,19.49 2.32,6.01 7.84,15.2 10.99,18.59 3.1,3.29 9.52,7.34 16.76,10.88 6.67,3.24 16.24,6.44 20.56,6.9 9.25,0.7 22.39,1.33 24.99,1.24 4.66,-0.18 14.35,-2.31 18.52,-3.5 2.69,-0.79 9.18,-3.34 12.04,-5.24 1.41,-0.96 3.47,-2.88 4.54,-4.19 0.99,-1.26 3.01,-4.26 3.91,-5.82 1.88,-3.28 6.78,-14.29 8.6,-18.43"
       fill="none"
       stroke="#27284d"
       stroke-width="64.86"
       stroke-opacity="1"
       stroke-linejoin="round"
       id="path20" />
  </g>
</svg>
