<?xml version="1.0" encoding="UTF-8" standalone="no"?>
<!DOCTYPE svg PUBLIC "-//W3C//DTD SVG 1.1//EN" "http://www.w3.org/Graphics/SVG/1.1/DTD/svg11.dtd">
<svg width="432.00" height="432.00" viewBox="0.00 0.00 3600.00 3600.00" xmlns="http://www.w3.org/2000/svg" xmlns:xlink="http://www.w3.org/1999/xlink">
<g stroke-linecap="round" id="Layer_4">
<path d="M1616.22,899.67 C1617.64,899.80 1621.46,900.16 1623.86,900.39 C1624.85,900.49 1646.75,903.18 1655.09,904.39 C1663.17,905.75 1678.43,908.84 1685.99,910.47 C1699.90,913.93 1727.66,921.87 1741.39,926.34 C1753.99,930.75 1779.00,941.12 1795.13,948.73 C1808.28,955.29 1834.29,969.49 1846.06,976.92 C1861.20,986.96 1884.68,1004.35 1893.58,1011.47 C1910.05,1025.23 1925.65,1040.06 1938.32,1053.15 C1948.10,1063.94 1967.15,1086.50 1976.00,1098.20 C1983.95,1109.11 1998.25,1131.87 2006.93,1147.07 C2013.78,1159.77 2026.54,1186.14 2031.71,1199.15 C2038.05,1216.36 2047.15,1245.34 2049.43,1254.22 C2052.95,1268.58 2057.47,1293.33 2059.75,1310.95 C2061.29,1325.25 2062.87,1353.24 2062.72,1369.02 C2062.36,1383.09 2059.69,1412.66 2057.81,1426.98 C2055.59,1441.74 2049.21,1470.17 2045.51,1483.08 C2040.18,1500.31 2030.09,1528.17 2025.70,1538.62 C2021.09,1548.79 2007.82,1574.48 1998.81,1590.11 C1995.06,1596.34 1987.09,1608.70 1983.01,1614.89 C1974.92,1626.53 1956.28,1649.67 1946.69,1660.69 C1936.47,1672.03 1914.54,1693.68 1904.22,1702.70 C1893.04,1712.15 1869.03,1730.40 1856.92,1738.98 C1850.33,1743.36 1837.30,1751.56 1830.54,1755.57 C1817.74,1762.69 1793.99,1774.93 1777.43,1782.57 C1764.93,1788.00 1739.44,1797.39 1722.39,1802.77 C1708.20,1806.91 1679.08,1814.26 1665.12,1816.89 C1646.85,1819.91 1621.17,1822.88 1606.65,1824.13 C1588.84,1825.21 1565.89,1825.51 1547.41,1824.87 C1535.94,1824.22 1506.32,1821.41 1488.26,1818.91 C1474.51,1816.69 1445.39,1810.02 1431.14,1806.18 C1413.81,1801.11 1386.93,1792.02 1374.46,1786.95 C1364.37,1782.63 1335.02,1768.45 1322.09,1761.64 C1305.01,1751.96 1285.31,1739.35 1270.83,1729.02 C1261.76,1722.25 1235.69,1701.23 1224.56,1691.07 C1216.67,1683.58 1195.88,1661.64 1184.35,1648.24 C1175.22,1637.06 1157.77,1613.64 1150.15,1601.78 C1140.44,1585.90 1125.81,1559.16 1121.79,1550.73 C1115.55,1537.26 1105.98,1512.95 1100.16,1495.67 C1095.78,1481.67 1088.79,1454.48 1085.98,1439.17 C1084.07,1427.83 1080.39,1395.02 1079.43,1380.30 C1079.10,1372.93 1078.86,1360.37 1079.06,1351.19 C1079.71,1335.78 1083.08,1302.07 1084.47,1292.94 C1085.64,1285.80 1088.29,1271.59 1089.79,1264.58 C1092.41,1253.73 1100.60,1225.86 1106.50,1208.83 C1111.15,1196.27 1122.82,1169.81 1129.71,1156.60 C1136.55,1144.01 1151.46,1118.96 1159.41,1107.35 C1168.57,1094.41 1188.49,1069.85 1195.96,1061.39 C1208.10,1048.19 1224.26,1032.27 1237.55,1020.42 C1245.93,1013.30 1268.55,995.64 1284.00,984.66 C1295.98,976.55 1321.73,961.59 1334.58,954.79 C1347.61,948.27 1377.42,934.80 1388.02,930.75 C1403.22,925.26 1431.79,916.69 1446.00,912.86 C1463.35,908.68 1485.78,904.48 1504.44,901.92 C1519.23,900.28 1545.11,898.23 1564.37,897.59 C1579.06,897.43 1608.96,899.07 1623.64,900.39 C1641.52,902.39 1671.99,907.37 1683.01,909.76 C1694.44,912.45 1729.45,922.33 1740.80,926.19 C1762.82,934.28 1768.44,936.56 1772.20,938.19" fill="none" stroke="rgb(73, 155, 228)" stroke-width="60.00" stroke-opacity="1.00" stroke-linejoin="round"/>
<path d="M1044.51,1102.56 C1031.49,1091.11 1029.88,1089.36 1030.07,1089.46 C1031.10,1090.08 1102.82,1144.37 1134.61,1168.67 C1147.45,1179.04 1177.56,1204.04 1181.79,1208.70 C1185.51,1212.81 1191.50,1220.99 1193.27,1224.37 C1193.49,1224.78 1196.01,1230.06 1196.58,1230.92 C1197.36,1232.04 1199.21,1233.24 1200.19,1233.27 C1201.17,1233.23 1203.30,1232.04 1204.40,1230.89 C1206.52,1228.59 1209.26,1222.47 1209.78,1221.30 C1213.31,1213.10 1225.02,1182.12 1231.18,1164.55 C1243.63,1127.20 1262.05,1071.91 1268.02,1053.98 C1261.00,1074.15 1243.36,1124.82 1232.75,1155.31 C1220.30,1190.80 1195.77,1260.03 1183.71,1293.77 C1170.45,1330.01 1144.24,1400.72 1131.29,1435.20 C1121.03,1462.19 1106.15,1501.33 1101.53,1513.48" fill="none" stroke="rgb(39, 40, 77)" stroke-width="86.48" stroke-opacity="1.00" stroke-linejoin="round"/>
<path d="M1350.44,1168.50 C1350.43,1169.89 1350.43,1170.80 1350.44,1171.23 C1350.59,1183.27 1350.21,1189.64 1349.06,1200.10 C1348.21,1208.06 1347.92,1220.66 1348.26,1231.15 C1349.12,1250.05 1351.63,1266.87 1352.87,1270.05 C1354.14,1273.23 1356.94,1276.60 1358.72,1278.01 C1361.74,1280.33 1365.39,1281.98 1369.06,1282.61 C1374.92,1283.57 1384.10,1282.99 1395.68,1281.81 C1404.50,1280.76 1421.02,1277.93 1429.34,1276.28 C1439.42,1274.18 1444.98,1272.15 1447.74,1270.24 C1449.41,1269.02 1450.92,1267.36 1451.82,1265.69 C1453.94,1261.55 1454.25,1251.66 1454.27,1239.00 C1454.22,1229.86 1453.97,1208.40 1453.65,1203.66 C1452.95,1197.69 1451.88,1187.02 1450.28,1178.80 C1449.02,1172.76 1447.74,1168.63 1446.11,1167.00 C1443.04,1164.06 1439.18,1161.59 1435.85,1160.59 C1430.97,1159.20 1417.40,1159.30 1409.27,1160.17 C1403.65,1160.77 1386.91,1163.81 1380.94,1165.18 C1372.32,1167.18 1364.32,1168.37 1353.94,1168.50 C1349.72,1168.50 1344.09,1168.50 1342.69,1168.50 C1342.03,1168.50 1341.37,1168.50 1340.71,1168.50" fill="none" stroke="rgb(39, 40, 77)" stroke-width="86.48" stroke-opacity="1.00" stroke-linejoin="round"/>
<path d="M1664.46,849.37 C1673.05,828.13 1694.42,775.26 1707.19,743.63 C1714.91,724.79 1730.28,688.18 1737.84,671.33 C1745.29,655.41 1759.91,626.34 1767.08,613.20 C1770.61,607.09 1780.27,590.86 1784.76,584.14 C1791.84,573.60 1805.57,556.41 1812.24,549.77 C1818.90,543.18 1830.77,534.64 1838.05,531.12 C1844.99,527.83 1855.78,523.46 1861.13,521.77 C1866.48,520.10 1877.18,517.87 1880.83,517.67 C1885.80,517.44 1894.11,518.43 1897.90,519.68 C1901.67,520.97 1908.06,524.93 1911.09,527.86 C1916.31,532.98 1926.83,546.82 1928.99,551.38 C1931.34,556.45 1935.51,573.09 1936.29,580.59 C1937.02,587.91 1937.08,605.67 1936.40,613.03 C1935.70,620.40 1930.01,650.19 1925.74,668.21 C1921.39,684.75 1912.26,715.63 1908.23,728.50 C1899.06,755.91 1878.35,816.13 1866.82,848.93 C1856.46,877.47 1835.68,934.29 1825.26,962.58 C1813.91,993.21 1790.72,1055.88 1778.88,1087.92 C1766.61,1121.17 1741.58,1189.11 1728.82,1223.79 C1716.78,1256.64 1696.32,1312.43 1687.91,1335.36 C1680.59,1355.33 1663.11,1403.00 1652.94,1430.72 C1643.30,1456.87 1624.88,1506.66 1616.11,1530.29 C1605.90,1557.40 1582.03,1620.77 1568.36,1657.01 C1556.76,1687.61 1532.87,1749.88 1524.56,1770.20 C1511.77,1800.97 1490.19,1852.81 1481.12,1872.27 C1466.96,1902.57 1436.89,1965.61 1420.98,1998.34 C1405.57,2028.52 1376.15,2084.94 1362.14,2111.20 C1359.17,2116.54 1350.60,2131.57 1345.01,2141.24 C1336.16,2155.85 1318.47,2181.00 1313.20,2187.10 C1307.82,2193.31 1294.67,2204.83 1293.39,2205.77 C1292.24,2206.61 1283.79,2212.05 1280.91,2213.39 C1276.20,2215.55 1255.24,2219.99 1251.00,2220.41 C1246.68,2220.84 1238.20,2221.14 1235.66,2220.96 C1231.86,2220.68 1211.40,2215.09 1208.77,2213.98 C1202.50,2211.35 1186.40,2204.44 1181.77,2201.50 C1178.26,2199.25 1171.09,2193.40 1168.41,2190.62 C1165.47,2187.51 1157.78,2176.07 1154.63,2170.10 C1153.11,2167.19 1149.85,2160.19 1148.81,2157.15 C1147.62,2153.58 1145.93,2145.52 1145.44,2141.08 C1144.47,2131.97 1145.20,2116.22 1146.17,2107.33 C1147.82,2095.08 1153.75,2067.37 1158.03,2051.92 C1162.79,2035.90 1173.62,2002.77 1179.31,1985.98 C1185.53,1968.77 1198.36,1935.81 1204.86,1919.54 C1211.93,1902.77 1226.43,1869.15 1233.87,1852.28 C1240.04,1838.37 1250.79,1814.13 1255.36,1803.80 C1256.25,1801.79 1257.55,1798.84 1257.96,1797.92" fill="none" stroke="rgb(39, 40, 77)" stroke-width="86.48" stroke-opacity="1.00" stroke-linejoin="round"/>
<path d="M1558.49,1078.31 C1576.34,1097.80 1620.91,1146.49 1647.62,1175.69 C1658.85,1188.00 1679.01,1210.18 1687.95,1220.04 C1696.35,1229.51 1709.08,1244.15 1713.42,1249.31 C1714.83,1251.02 1717.25,1253.95 1718.27,1255.18" fill="none" stroke="rgb(39, 40, 77)" stroke-width="86.48" stroke-opacity="1.00" stroke-linejoin="round"/>
<path d="M1866.08,1174.99 C1866.08,1176.38 1866.08,1177.29 1866.08,1177.72 C1866.24,1189.76 1865.85,1196.12 1864.71,1206.59 C1863.86,1214.55 1863.56,1227.14 1863.90,1237.64 C1864.77,1256.53 1867.28,1273.36 1868.52,1276.54 C1869.79,1279.72 1872.59,1283.09 1874.37,1284.50 C1877.39,1286.82 1881.03,1288.46 1884.71,1289.10 C1890.57,1290.05 1899.75,1289.48 1911.32,1288.30 C1920.15,1287.24 1936.67,1284.41 1944.98,1282.77 C1955.07,1280.67 1960.63,1278.64 1963.38,1276.73 C1965.06,1275.51 1966.57,1273.85 1967.46,1272.18 C1969.58,1268.04 1969.90,1258.14 1969.91,1245.49 C1969.87,1236.35 1969.62,1214.89 1969.30,1210.15 C1968.60,1204.17 1967.52,1193.51 1965.93,1185.28 C1964.66,1179.24 1963.39,1175.12 1961.75,1173.49 C1958.69,1170.55 1954.83,1168.08 1951.50,1167.08 C1946.62,1165.68 1933.05,1165.79 1924.92,1166.65 C1919.30,1167.26 1903.79,1170.01 1896.67,1171.69 C1889.12,1173.49 1879.09,1174.78 1869.68,1175.32 C1868.18,1175.43 1864.06,1175.93 1863.67,1176.32 C1863.05,1176.99 1863.54,1178.92 1864.36,1180.32" fill="none" stroke="rgb(39, 40, 77)" stroke-width="86.48" stroke-opacity="1.00" stroke-linejoin="round"/>
<path d="M1288.82,1395.54 C1288.28,1404.02 1286.93,1426.66 1286.14,1448.28 C1285.64,1483.48 1284.97,1571.77 1285.38,1594.59 C1286.18,1614.57 1288.08,1636.51 1290.12,1649.43 C1290.60,1652.43 1294.42,1659.76 1297.07,1662.08 C1298.38,1663.17 1301.30,1664.60 1302.88,1664.92 C1303.62,1665.06 1342.79,1662.51 1349.79,1662.05 C1357.30,1661.83 1376.77,1661.85 1381.39,1661.19 C1385.34,1660.60 1392.95,1658.43 1396.61,1656.84 C1400.25,1655.24 1407.10,1651.11 1409.61,1648.98 C1414.62,1644.68 1422.99,1635.02 1426.96,1628.98 C1430.92,1622.89 1438.06,1608.68 1441.00,1600.93 C1443.92,1593.14 1448.51,1576.18 1450.15,1567.12 C1451.11,1561.78 1453.19,1543.53 1453.76,1535.58 C1454.14,1527.41 1454.33,1510.47 1454.14,1501.69 C1453.71,1490.13 1451.63,1475.67 1449.21,1468.27 C1447.98,1464.59 1444.92,1457.71 1443.08,1454.53 C1441.23,1451.35 1436.93,1445.50 1434.48,1442.82 C1431.87,1440.01 1426.58,1435.46 1423.28,1433.18 C1417.00,1428.89 1402.01,1422.33 1393.31,1420.05 C1384.58,1417.79 1368.68,1415.79 1353.96,1414.93 C1337.42,1413.93 1315.27,1412.57 1309.66,1412.20 C1305.54,1411.91 1302.68,1412.00 1303.63,1412.38 C1304.72,1412.76 1319.98,1412.24 1323.09,1412.19 C1324.71,1412.17 1325.49,1412.44 1324.85,1412.75 C1323.61,1413.27 1306.56,1414.86 1305.03,1415.00" fill="none" stroke="rgb(39, 40, 77)" stroke-width="86.48" stroke-opacity="1.00" stroke-linejoin="round"/>
<path d="M1499.83,1348.89 C1519.46,1370.68 1564.54,1420.44 1590.00,1448.42 C1594.40,1453.10 1602.32,1461.42 1602.56,1461.69 C1603.91,1463.21 1606.27,1464.83 1607.57,1464.83 C1608.34,1464.84 1608.97,1463.95 1609.73,1464.05 C1610.71,1464.21 1612.59,1466.48 1613.55,1468.36 C1616.57,1474.29 1623.54,1490.98 1626.34,1497.72" fill="none" stroke="rgb(39, 40, 77)" stroke-width="54.05" stroke-opacity="1.00" stroke-linejoin="round"/>
<path d="M1740.58,1447.97 C1741.60,1479.28 1744.85,1575.34 1744.95,1575.15 C1745.15,1574.46 1743.92,1518.06 1743.42,1518.33 C1742.67,1518.93 1740.36,1556.87 1739.35,1577.16 C1738.51,1595.71 1737.39,1620.38 1737.12,1626.49 C1738.73,1614.45 1744.17,1573.61 1745.68,1565.61 C1747.40,1556.60 1751.59,1541.16 1754.28,1533.94 C1755.79,1529.95 1760.00,1521.19 1762.60,1517.05 C1765.15,1513.07 1770.82,1506.41 1773.85,1503.84 C1778.93,1499.59 1792.19,1492.47 1798.19,1490.67 C1801.40,1489.74 1808.83,1489.20 1812.60,1489.85 C1816.32,1490.54 1822.70,1493.46 1826.42,1495.86 C1829.60,1497.95 1835.57,1502.96 1837.81,1505.40 C1841.62,1509.62 1849.06,1522.12 1851.18,1528.13 C1853.66,1535.25 1856.27,1550.93 1857.08,1561.05 C1857.84,1574.05 1857.98,1610.11 1857.98,1623.15" fill="none" stroke="rgb(39, 40, 77)" stroke-width="75.67" stroke-opacity="1.00" stroke-linejoin="round"/>
<path d="M1966.36,1553.57 C1971.62,1554.16 1982.82,1555.43 1988.76,1556.12 C1993.68,1556.63 2002.02,1556.56 2006.16,1555.99 C2010.34,1555.39 2020.04,1552.59 2025.18,1549.88 C2031.24,1546.65 2039.82,1539.24 2042.42,1536.45 C2043.65,1535.12 2046.77,1531.14 2048.28,1528.43 C2050.01,1525.26 2051.91,1518.07 2051.97,1514.46 C2051.99,1510.99 2050.61,1504.40 2049.41,1501.26 C2047.12,1495.43 2040.48,1485.73 2037.88,1482.59 C2034.97,1479.08 2029.00,1472.88 2025.55,1469.78 C2020.26,1465.09 2009.56,1458.56 2004.33,1456.75 C2000.29,1455.38 1992.11,1454.22 1987.98,1454.43 C1985.74,1454.55 1980.26,1455.60 1979.83,1455.68 C1974.37,1456.75 1970.58,1458.26 1966.41,1460.72 C1961.73,1463.53 1951.69,1472.87 1948.38,1476.75 C1946.52,1478.95 1941.29,1487.62 1940.73,1488.55 C1940.06,1489.67 1933.62,1504.48 1932.40,1507.21 C1932.02,1508.89 1930.51,1512.72 1930.19,1513.89 C1929.96,1514.73 1930.03,1518.87 1929.88,1519.54 C1929.67,1520.48 1928.32,1523.87 1928.09,1525.11 C1928.00,1525.57 1928.00,1558.50 1927.89,1560.57 C1927.84,1562.53 1929.48,1567.12 1929.71,1569.05 C1930.02,1571.74 1930.80,1575.08 1931.04,1576.11 C1933.13,1579.95 1935.47,1584.10 1935.78,1584.99 C1936.10,1585.89 1939.54,1599.85 1941.30,1604.48 C1943.62,1610.49 1949.14,1619.68 1952.29,1623.07 C1955.39,1626.36 1961.81,1630.41 1969.05,1633.95 C1975.72,1637.19 1985.29,1640.39 1989.61,1640.85 C1998.86,1641.55 2012.00,1642.18 2014.60,1642.09 C2019.26,1641.91 2028.95,1639.78 2033.12,1638.59 C2035.81,1637.80 2042.30,1635.25 2045.16,1633.35 C2046.57,1632.39 2048.63,1630.47 2049.70,1629.16 C2050.69,1627.90 2052.71,1624.90 2053.61,1623.34 C2055.49,1620.06 2060.39,1609.05 2062.21,1604.91" fill="none" stroke="rgb(39, 40, 77)" stroke-width="64.86" stroke-opacity="1.00" stroke-linejoin="round"/>
</g>
</svg>
